<svg width="30" height="30" viewBox="0 0 30 30" fill="none" xmlns="http://www.w3.org/2000/svg">
<path d="M10.5313 17.1875C11.6771 17.2083 12.6563 16.8177 13.4688 16.0156C14.2813 15.2135 14.6875 14.2292 14.6875 13.0625C14.6875 12.4583 14.5469 11.8906 14.2656 11.3594C13.9844 10.8281 13.625 10.3542 13.1875 9.9375C12.3958 9.14583 11.4427 8.54167 10.3281 8.125C9.21354 7.70833 8.09375 7.5 6.96875 7.5C6.32292 7.5 5.83333 7.66146 5.5 7.98437C5.16667 8.30729 5 8.77083 5 9.375C5 10.4792 5.17188 11.5573 5.51563 12.6094C5.85938 13.6615 6.40625 14.5937 7.15625 15.4062C7.61458 15.8854 8.125 16.3021 8.6875 16.6562C9.25 17.0104 9.86458 17.1875 10.5313 17.1875ZM21.375 10.0625L17.4063 6.09375L25.375 2.3125L25.9375 7.8125L21.375 10.0625ZM24.1406 12.4531C23.7552 12.3802 23.4375 12.1979 23.1875 11.9062L22.75 11.4375L26.1563 9.8125L26.2188 10.4375C26.2813 10.8333 26.224 11.2031 26.0469 11.5469C25.8698 11.8906 25.6042 12.1458 25.25 12.3125C24.8958 12.4792 24.526 12.526 24.1406 12.4531ZM2.5 9.375C2.5 8 2.89063 6.92708 3.67188 6.15625C4.45313 5.38542 5.55208 5 6.96875 5C8.44792 5 9.89583 5.28125 11.3125 5.84375C12.7292 6.40625 13.9688 7.21875 15.0313 8.28125C15.6771 8.92708 16.1927 9.65625 16.5781 10.4687C16.9635 11.2812 17.1563 12.1458 17.1563 13.0625C17.1563 13.7292 17.0573 14.375 16.8594 15C16.6615 15.625 16.3542 16.1979 15.9375 16.7187L24.9688 25.75L23.2188 27.5L14.1875 18.4687C13.6458 18.8646 13.0677 19.1719 12.4531 19.3906C11.8385 19.6094 11.1979 19.7083 10.5313 19.6875C9.53125 19.6667 8.58854 19.4271 7.70313 18.9687C6.81771 18.5104 6.04167 17.8958 5.375 17.125C4.4375 16.0625 3.72396 14.8646 3.23438 13.5312C2.74479 12.1979 2.5 10.8125 2.5 9.375Z" fill="#E2E2FD"/>
</svg>
