<svg width="30" height="30" viewBox="0 0 30 30" fill="none" xmlns="http://www.w3.org/2000/svg">
<path d="M15 21.875C16.5625 21.875 17.8906 21.3281 18.9844 20.2344C20.0781 19.1406 20.625 17.8125 20.625 16.25C20.625 14.6875 20.0781 13.3594 18.9844 12.2656C17.8906 11.1719 16.5625 10.625 15 10.625C13.4375 10.625 12.1094 11.1719 11.0156 12.2656C9.92188 13.3594 9.375 14.6875 9.375 16.25C9.375 17.8125 9.92188 19.1406 11.0156 20.2344C12.1094 21.3281 13.4375 21.875 15 21.875ZM15 19.375C14.125 19.375 13.3854 19.0729 12.7812 18.4688C12.1771 17.8646 11.875 17.125 11.875 16.25C11.875 15.375 12.1771 14.6354 12.7812 14.0312C13.3854 13.4271 14.125 13.125 15 13.125C15.875 13.125 16.6146 13.4271 17.2188 14.0312C17.8229 14.6354 18.125 15.375 18.125 16.25C18.125 17.125 17.8229 17.8646 17.2188 18.4688C16.6146 19.0729 15.875 19.375 15 19.375ZM5 26.25C4.3125 26.25 3.72396 26.0052 3.23438 25.5156C2.74479 25.026 2.5 24.4375 2.5 23.75L2.5 8.75C2.5 8.0625 2.74479 7.47396 3.23438 6.98438C3.72396 6.49479 4.3125 6.25 5 6.25H8.9375L11.25 3.75L18.75 3.75L21.0625 6.25L25 6.25C25.6875 6.25 26.276 6.49479 26.7656 6.98437C27.2552 7.47396 27.5 8.0625 27.5 8.75V23.75C27.5 24.4375 27.2552 25.026 26.7656 25.5156C26.276 26.0052 25.6875 26.25 25 26.25H5ZM5 23.75H25V8.75H19.9375L17.6562 6.25L12.3438 6.25L10.0625 8.75H5L5 23.75Z" fill="#E2E2FD"/>
</svg>
