<svg width="26" height="26" viewBox="0 0 26 26" fill="none" xmlns="http://www.w3.org/2000/svg">
<path d="M8.84165 11.1047L11.1047 8.81533L9.63108 7.3154L8.47324 8.47324L6.99963 6.99963L8.13115 5.84178L6.947 4.65763L4.65763 6.947L8.84165 11.1047ZM17.4728 19.7622L19.7622 17.4728L18.578 16.2887L17.4202 17.4202L15.9466 15.9466L17.0781 14.7887L15.5782 13.3151L13.3151 15.5782L17.4728 19.7622ZM7.21014 21.6832H2.73667V17.2097L7.34172 12.6046L1.68408 6.947L6.947 1.68408L12.6309 7.36803L16.6044 3.36821C16.815 3.1577 17.0518 2.99981 17.3149 2.89455C17.5781 2.78929 17.85 2.73667 18.1307 2.73667C18.4114 2.73667 18.6833 2.78929 18.9464 2.89455C19.2096 2.99981 19.4464 3.1577 19.6569 3.36821L21.0516 4.7892C21.2621 4.99972 21.42 5.23655 21.5253 5.4997C21.6305 5.76284 21.6832 6.03476 21.6832 6.31545C21.6832 6.59614 21.6305 6.86367 21.5253 7.11804C21.42 7.37242 21.2621 7.60486 21.0516 7.81538L17.0781 11.8152L22.7357 17.4728L17.4728 22.7357L11.8152 17.0781L7.21014 21.6832ZM4.84183 19.578H6.31545L16.6308 9.28899L15.1308 7.78906L4.84183 18.1044V19.578ZM15.894 8.55219L15.1308 7.78906L16.6308 9.28899L15.894 8.55219Z" fill="#B9BBFF"/>
</svg>
