<svg width="26" height="26" viewBox="0 0 26 26" fill="none" xmlns="http://www.w3.org/2000/svg">
<path d="M9.12717 14.8958C10.1202 14.9139 10.9688 14.5753 11.673 13.8802C12.3772 13.1851 12.7292 12.3319 12.7292 11.3208C12.7292 10.7972 12.6074 10.3052 12.3636 9.84477C12.1199 9.38436 11.8084 8.97359 11.4292 8.61248C10.7431 7.92637 9.9171 7.40276 8.95112 7.04165C7.98515 6.68054 7.01467 6.49998 6.03967 6.49998C5.47994 6.49998 5.05564 6.63991 4.76675 6.91977C4.47786 7.19964 4.33342 7.60137 4.33342 8.12498C4.33342 9.08193 4.48237 10.0163 4.78029 10.9281C5.07821 11.8399 5.55217 12.6479 6.20217 13.3521C6.59939 13.7673 7.04175 14.1285 7.52925 14.4354C8.01675 14.7423 8.54939 14.8958 9.12717 14.8958ZM18.5251 8.72082L15.0855 5.28123L21.9918 2.00415L22.4793 6.77082L18.5251 8.72082ZM20.922 10.7927C20.5879 10.7295 20.3126 10.5715 20.0959 10.3187L19.7168 9.91248L22.6688 8.50415L22.723 9.04582C22.7772 9.38887 22.7275 9.70936 22.574 10.0073C22.4206 10.3052 22.1904 10.5264 21.8834 10.6708C21.5765 10.8153 21.256 10.8559 20.922 10.7927ZM2.16675 8.12498C2.16675 6.93332 2.50529 6.00346 3.18237 5.3354C3.85946 4.66734 4.81189 4.33332 6.03967 4.33332C7.32161 4.33332 8.57647 4.57707 9.80425 5.06457C11.032 5.55207 12.1063 6.25623 13.0272 7.17707C13.5869 7.73679 14.0338 8.36873 14.3678 9.0729C14.7018 9.77707 14.8688 10.5264 14.8688 11.3208C14.8688 11.8986 14.7831 12.4583 14.6115 13C14.44 13.5416 14.1737 14.0382 13.8126 14.4896L21.6397 22.3166L20.123 23.8333L12.2959 16.0062C11.8265 16.3493 11.3254 16.6156 10.7928 16.8052C10.2602 16.9948 9.70494 17.0805 9.12717 17.0625C8.2605 17.0444 7.44348 16.8368 6.67612 16.4396C5.90876 16.0423 5.23619 15.5097 4.65842 14.8416C3.84591 13.9208 3.22751 12.8826 2.80321 11.7271C2.3789 10.5715 2.16675 9.37082 2.16675 8.12498Z" fill="#B9BBFF"/>
</svg>
