<svg width="26" height="26" viewBox="0 0 26 26" fill="none" xmlns="http://www.w3.org/2000/svg">
<path d="M13.0001 18.9583C14.3542 18.9583 15.5053 18.4844 16.4532 17.5365C17.4011 16.5885 17.8751 15.4375 17.8751 14.0833C17.8751 12.7292 17.4011 11.5781 16.4532 10.6302C15.5053 9.68229 14.3542 9.20833 13.0001 9.20833C11.6459 9.20833 10.4949 9.68229 9.54696 10.6302C8.59904 11.5781 8.12508 12.7292 8.12508 14.0833C8.12508 15.4375 8.59904 16.5885 9.54696 17.5365C10.4949 18.4844 11.6459 18.9583 13.0001 18.9583ZM13.0001 16.7917C12.2417 16.7917 11.6008 16.5299 11.0772 16.0063C10.5536 15.4826 10.2917 14.8417 10.2917 14.0833C10.2917 13.325 10.5536 12.684 11.0772 12.1604C11.6008 11.6368 12.2417 11.375 13.0001 11.375C13.7584 11.375 14.3994 11.6368 14.923 12.1604C15.4466 12.684 15.7084 13.325 15.7084 14.0833C15.7084 14.8417 15.4466 15.4826 14.923 16.0063C14.3994 16.5299 13.7584 16.7917 13.0001 16.7917ZM4.33341 22.75C3.73758 22.75 3.22751 22.5378 2.80321 22.1135C2.3789 21.6892 2.16675 21.1792 2.16675 20.5833L2.16675 7.58333C2.16675 6.9875 2.3789 6.47743 2.80321 6.05313C3.22751 5.62882 3.73758 5.41667 4.33341 5.41667H7.74591L9.75008 3.25L16.2501 3.25L18.2542 5.41667H21.6667C22.2626 5.41667 22.7726 5.62882 23.197 6.05313C23.6213 6.47743 23.8334 6.9875 23.8334 7.58333V20.5833C23.8334 21.1792 23.6213 21.6892 23.197 22.1135C22.7726 22.5378 22.2626 22.75 21.6667 22.75H4.33341ZM4.33341 20.5833H21.6667V7.58333H17.2792L15.3022 5.41667L10.698 5.41667L8.72091 7.58333H4.33341L4.33341 20.5833Z" fill="#B9BBFF"/>
</svg>
