<svg width="20" height="20" viewBox="0 0 20 20" fill="none" xmlns="http://www.w3.org/2000/svg">
<path d="M6.99998 8.79166L8.79165 6.97916L7.62498 5.79166L6.70831 6.70833L5.54165 5.54166L6.43748 4.62499L5.49998 3.68749L3.68748 5.49999L6.99998 8.79166ZM13.8333 15.6458L15.6458 13.8333L14.7083 12.8958L13.7916 13.7917L12.625 12.625L13.5208 11.7083L12.3333 10.5417L10.5416 12.3333L13.8333 15.6458ZM5.70831 17.1667H2.16665V13.625L5.81248 9.97916L1.33331 5.49999L5.49998 1.33333L9.99998 5.83333L13.1458 2.66666C13.3125 2.49999 13.5 2.37499 13.7083 2.29166C13.9166 2.20833 14.1319 2.16666 14.3541 2.16666C14.5764 2.16666 14.7916 2.20833 15 2.29166C15.2083 2.37499 15.3958 2.49999 15.5625 2.66666L16.6666 3.79166C16.8333 3.95833 16.9583 4.14583 17.0416 4.35416C17.125 4.56249 17.1666 4.77777 17.1666 4.99999C17.1666 5.22222 17.125 5.43402 17.0416 5.63541C16.9583 5.8368 16.8333 6.02083 16.6666 6.18749L13.5208 9.35416L18 13.8333L13.8333 18L9.35415 13.5208L5.70831 17.1667ZM3.83331 15.5H4.99998L13.1666 7.35416L11.9791 6.16666L3.83331 14.3333V15.5ZM12.5833 6.77083L11.9791 6.16666L13.1666 7.35416L12.5833 6.77083Z" fill="#8385FF"/>
</svg>
